<?xml version="1.0" encoding="UTF-8" standalone="no"?>
<!-- Created with Inkscape (http://www.inkscape.org/) -->

<svg
   width="64"
   height="64"
   viewBox="0 0 16.933333 16.933333"
   version="1.1"
   id="svg1"
   xml:space="preserve"
   inkscape:version="1.4.2 (ebf0e940d0, 2025-05-08)"
   sodipodi:docname="logo.svg"
   inkscape:export-filename="logo.png"
   inkscape:export-xdpi="96"
   inkscape:export-ydpi="96"
   xmlns:inkscape="http://www.inkscape.org/namespaces/inkscape"
   xmlns:sodipodi="http://sodipodi.sourceforge.net/DTD/sodipodi-0.dtd"
   xmlns:xlink="http://www.w3.org/1999/xlink"
   xmlns="http://www.w3.org/2000/svg"
   xmlns:svg="http://www.w3.org/2000/svg"><sodipodi:namedview
     id="namedview1"
     pagecolor="#ffffff"
     bordercolor="#000000"
     borderopacity="0.25"
     inkscape:showpageshadow="2"
     inkscape:pageopacity="0.0"
     inkscape:pagecheckerboard="0"
     inkscape:deskcolor="#d1d1d1"
     inkscape:document-units="mm"
     inkscape:zoom="7.1265301"
     inkscape:cx="50.515468"
     inkscape:cy="48.200176"
     inkscape:window-width="2499"
     inkscape:window-height="1012"
     inkscape:window-x="0"
     inkscape:window-y="0"
     inkscape:window-maximized="1"
     inkscape:current-layer="layer1" /><defs
     id="defs1"><linearGradient
       id="linearGradient21"
       inkscape:collect="always"><stop
         style="stop-color:#ff7f2a;stop-opacity:1;"
         offset="0"
         id="stop21" /><stop
         style="stop-color:#ff7f2a;stop-opacity:0;"
         offset="1"
         id="stop22" /></linearGradient><linearGradient
       id="linearGradient15"
       inkscape:collect="always"><stop
         style="stop-color:#000000;stop-opacity:1;"
         offset="0"
         id="stop16" /><stop
         style="stop-color:#000000;stop-opacity:0;"
         offset="1"
         id="stop17" /></linearGradient><linearGradient
       inkscape:collect="always"
       xlink:href="#linearGradient15"
       id="linearGradient17"
       x1="37.242111"
       y1="241.15292"
       x2="91.244095"
       y2="241.15292"
       gradientUnits="userSpaceOnUse"
       gradientTransform="matrix(1.1707851,0,0,1.1707851,-26.702864,-54.778561)" /><linearGradient
       inkscape:collect="always"
       xlink:href="#linearGradient21"
       id="linearGradient22"
       x1="31.163212"
       y1="219.6434"
       x2="97.32299"
       y2="219.6434"
       gradientUnits="userSpaceOnUse"
       gradientTransform="translate(-10.657738,4.3189888)" /></defs><g
     inkscape:label="Camada 1"
     inkscape:groupmode="layer"
     id="layer1"><path
       style="fill:#d1e9fe"
       d="m 75.663653,161.1763 c -0.329107,-0.41965 -0.319749,-0.429 0.09989,-0.0999 0.254661,0.19972 0.463021,0.40808 0.463021,0.46302 0,0.21777 -0.217272,0.0776 -0.562916,-0.36312 z m -3.563264,-3.57188 -0.504028,-0.59531 0.595312,0.50403 c 0.559447,0.47366 0.715762,0.6866 0.504028,0.6866 -0.05021,0 -0.318097,-0.26789 -0.595312,-0.59532 z M 103.69362,148.494 c 0.191,-0.0764 0.4192,-0.067 0.50712,0.0209 0.0879,0.0879 -0.0684,0.15046 -0.34726,0.13897 -0.30823,-0.0127 -0.37092,-0.0754 -0.15986,-0.15985 z M 105,148.5 c 0.18191,-0.0734 0.47956,-0.0734 0.66146,0 0.1819,0.0734 0.0331,0.13345 -0.33073,0.13345 -0.3638,0 -0.51263,-0.06 -0.33073,-0.13345 z m -8.685124,-3.19821 -0.641433,-0.7276 0.727604,0.64143 c 0.680056,0.59951 0.848939,0.81377 0.641433,0.81377 -0.04739,0 -0.374816,-0.32742 -0.727604,-0.7276 z m 68.282524,0.36313 c 0,-0.055 0.20836,-0.26331 0.46302,-0.46303 0.41964,-0.3291 0.429,-0.31974 0.0999,0.0999 -0.34564,0.44073 -0.56291,0.58089 -0.56291,0.36313 z m 2.11666,-1.88448 c 0.34178,-0.36381 0.68094,-0.66146 0.7537,-0.66146 0.0728,0 -0.14734,0.29765 -0.48911,0.66146 -0.34178,0.3638 -0.68094,0.66145 -0.7537,0.66145 -0.0728,0 0.14734,-0.29765 0.48911,-0.66145 z m 3.43959,-3.39009 c 0,-0.0455 0.38695,-0.43248 0.85989,-0.85989 l 0.8599,-0.77711 -0.77711,0.8599 c -0.72437,0.80154 -0.94268,0.98151 -0.94268,0.7771 z m 2.11666,-2.39835 c 0,-0.0549 0.20836,-0.2633 0.46302,-0.46302 0.41965,-0.32911 0.42901,-0.31975 0.0999,0.0999 -0.34564,0.44073 -0.56292,0.58089 -0.56292,0.36313 z M 57.991208,115.97665 c 0.0127,-0.30823 0.07539,-0.37092 0.159852,-0.15985 0.07643,0.19099 0.06703,0.4192 -0.02089,0.50711 -0.08792,0.0879 -0.150453,-0.0683 -0.138964,-0.34726 z m 125.941662,-2.91042 c 0.0127,-0.30822 0.0754,-0.37092 0.15985,-0.15985 0.0764,0.191 0.067,0.4192 -0.0209,0.50712 -0.0879,0.0879 -0.15045,-0.0683 -0.13896,-0.34727 z m 0.26458,-1.5875 c 0.0127,-0.30822 0.0754,-0.37092 0.15985,-0.15985 0.0764,0.191 0.067,0.4192 -0.0209,0.50712 -0.0879,0.0879 -0.15046,-0.0683 -0.13897,-0.34727 z m 0.28547,-1.96232 c 0,-0.36381 0.0601,-0.51263 0.13345,-0.33073 0.0734,0.1819 0.0734,0.47955 0,0.66145 -0.0734,0.18191 -0.13345,0.0331 -0.13345,-0.33072 z m 0.28953,-2.77813 c 0.003,-0.58208 0.0571,-0.78905 0.12041,-0.45994 0.0633,0.32912 0.0609,0.80537 -0.005,1.05834 -0.0662,0.25296 -0.118,-0.0163 -0.11507,-0.5984 z m 0,-7.14375 c 0.003,-0.58208 0.0571,-0.78905 0.12041,-0.45993 0.0633,0.32911 0.0609,0.80536 -0.005,1.05833 -0.0662,0.25296 -0.118,-0.0163 -0.11507,-0.5984 z m -0.31042,-2.93246 c 0.0127,-0.30823 0.0754,-0.37092 0.15986,-0.15986 0.0764,0.191 0.067,0.4192 -0.0209,0.50712 -0.0879,0.0879 -0.15045,-0.0684 -0.13897,-0.34726 z m -0.24369,-1.96233 c 0,-0.3638 0.06,-0.51263 0.13345,-0.33073 0.0734,0.1819 0.0734,0.47956 0,0.66146 -0.0734,0.1819 -0.13345,0.0331 -0.13345,-0.33073 z m -0.28547,-1.47726 c 0.0127,-0.30822 0.0754,-0.37092 0.15985,-0.15985 0.0764,0.191 0.067,0.4192 -0.0209,0.50712 -0.0879,0.0879 -0.15045,-0.0683 -0.13896,-0.34727 z M 173.55948,69.895054 c -0.32911,-0.419644 -0.31975,-0.429003 0.0999,-0.0999 0.25466,0.199719 0.46302,0.408078 0.46302,0.463021 0,0.217761 -0.21727,0.0776 -0.56292,-0.363126 z M 87.339068,69.199846 c 0,-0.05494 0.20836,-0.263301 0.463021,-0.463021 0.419644,-0.329107 0.429002,-0.319749 0.0999,0.0999 -0.345644,0.440729 -0.562916,0.580887 -0.562916,0.363126 z m 85.162082,-0.627709 c -0.32911,-0.419644 -0.31975,-0.429002 0.0999,-0.0999 0.44073,0.345644 0.58089,0.562916 0.36313,0.562916 -0.0549,0 -0.2633,-0.20836 -0.46302,-0.463021 z M 89.05886,67.183075 c 0.263389,-0.291042 0.53842,-0.529167 0.611181,-0.529167 0.07276,0 -0.08321,0.238125 -0.346598,0.529167 -0.263389,0.291041 -0.53842,0.529166 -0.611181,0.529166 -0.07276,0 0.08321,-0.238125 0.346598,-0.529166 z m 81.99569,-0.33073 -0.50403,-0.595312 0.59531,0.504028 c 0.55945,0.473662 0.71577,0.686597 0.50403,0.686597 -0.0502,0 -0.31809,-0.267891 -0.59531,-0.595313 z m -4.62509,-4.630208 -0.64144,-0.727604 0.72761,0.641433 c 0.40018,0.352788 0.7276,0.68021 0.7276,0.727604 0,0.207506 -0.21426,0.03862 -0.81377,-0.641433 z M 94.218235,62.0237 c 0.341774,-0.363802 0.680939,-0.661458 0.753699,-0.661458 0.07276,0 -0.147342,0.297656 -0.489116,0.661458 -0.341774,0.363802 -0.680939,0.661458 -0.7537,0.661458 -0.07276,0 0.147342,-0.297656 0.489117,-0.661458 z m 70.345415,-1.389063 c -0.32911,-0.419643 -0.31975,-0.429002 0.0999,-0.09989 0.44073,0.345643 0.58089,0.562915 0.36313,0.562915 -0.0549,0 -0.2633,-0.208359 -0.46302,-0.463021 z M 96.864068,59.93943 c 0,-0.05494 0.208359,-0.263301 0.463021,-0.463021 0.419643,-0.329107 0.429002,-0.319749 0.09989,0.09989 -0.345643,0.440729 -0.562915,0.580887 -0.562915,0.363126 z m 20.058722,-9.870428 c 0.191,-0.07643 0.4192,-0.06703 0.50712,0.02089 0.0879,0.08792 -0.0683,0.150452 -0.34727,0.138964 -0.30822,-0.0127 -0.37092,-0.07539 -0.15985,-0.159852 z m 2.38125,-0.529167 c 0.191,-0.07643 0.4192,-0.06703 0.50712,0.02089 0.0879,0.08792 -0.0683,0.150453 -0.34727,0.138964 -0.30822,-0.0127 -0.37092,-0.07539 -0.15985,-0.159852 z m 21.69583,0 c 0.191,-0.07643 0.4192,-0.06703 0.50712,0.02089 0.0879,0.08792 -0.0684,0.150453 -0.34726,0.138964 -0.30823,-0.0127 -0.37092,-0.07539 -0.15986,-0.159852 z M 122.19792,49.01618 c 0.1819,-0.0734 0.47956,-0.0734 0.66146,0 0.1819,0.0734 0.0331,0.133453 -0.33073,0.133453 -0.3638,0 -0.51263,-0.06005 -0.33073,-0.133453 z m 15.61042,0 c 0.1819,-0.0734 0.47955,-0.0734 0.66145,0 0.18191,0.0734 0.0331,0.133453 -0.33072,0.133453 -0.36381,0 -0.51263,-0.06005 -0.33073,-0.133453 z m -13.35643,-0.272708 c 0.25744,-0.06708 0.61462,-0.06267 0.79375,0.0098 0.17914,0.07247 -0.0315,0.127361 -0.46805,0.121969 -0.43656,-0.0054 -0.58313,-0.06469 -0.3257,-0.131773 z m 11.1125,0 c 0.25743,-0.06708 0.61462,-0.06267 0.79375,0.0098 0.17914,0.07247 -0.0315,0.127361 -0.46805,0.121969 -0.43657,-0.0054 -0.58313,-0.06469 -0.3257,-0.131773 z m -6.74154,-0.277396 c 0.91521,-0.05181 2.34396,-0.05139 3.175,9.52e-4 0.83104,0.05234 0.0822,0.09473 -1.66401,0.09421 -1.74625,-5.23e-4 -2.4262,-0.04334 -1.51099,-0.09516 z"
       id="path7" /><path
       style="fill:#6cc6fe"
       d="m 151.10365,159.39036 c 0.34177,-0.3638 0.68094,-0.66146 0.7537,-0.66146 0.0728,0 -0.14734,0.29766 -0.48912,0.66146 -0.34177,0.3638 -0.68094,0.66146 -0.7537,0.66146 -0.0728,0 0.14734,-0.29766 0.48912,-0.66146 z M 73.845319,82.132032 c 0.341774,-0.363802 0.680939,-0.661458 0.753699,-0.661458 0.07276,0 -0.147341,0.297656 -0.489116,0.661458 -0.341774,0.363802 -0.680939,0.661458 -0.753699,0.661458 -0.07276,0 0.147342,-0.297656 0.489116,-0.661458 z"
       id="path4" /><path
       style="fill:#50b9fe"
       d="m 166.99954,124.7079 c 0.0127,-0.30823 0.0754,-0.37092 0.15985,-0.15985 0.0764,0.19099 0.067,0.41919 -0.0209,0.50711 -0.0879,0.0879 -0.15045,-0.0684 -0.13896,-0.34726 z M 57.991208,117.82873 c 0.0127,-0.30822 0.07539,-0.37092 0.159852,-0.15985 0.07643,0.191 0.06703,0.4192 -0.02089,0.50712 -0.08792,0.0879 -0.150453,-0.0684 -0.138964,-0.34727 z M 166.99954,116.7704 c 0.0127,-0.30823 0.0754,-0.37092 0.15985,-0.15985 0.0764,0.19099 0.067,0.4192 -0.0209,0.50711 -0.0879,0.0879 -0.15045,-0.0683 -0.13896,-0.34726 z M 152.39282,83.388803 c -0.32911,-0.419644 -0.31975,-0.429002 0.0999,-0.0999 0.44073,0.345644 0.58089,0.562916 0.36313,0.562916 -0.0549,0 -0.2633,-0.20836 -0.46302,-0.463021 z m -2.50494,-2.513542 -0.50402,-0.595312 0.59531,0.504028 c 0.55945,0.473662 0.71576,0.686597 0.50403,0.686597 -0.0502,0 -0.3181,-0.267891 -0.59532,-0.595313 z M 108.45612,66.208584 c 0.191,-0.07643 0.4192,-0.06703 0.50712,0.02089 0.0879,0.08792 -0.0684,0.150453 -0.34726,0.138964 -0.30823,-0.0127 -0.37092,-0.07539 -0.15986,-0.159852 z m 7.9375,0 c 0.191,-0.07643 0.4192,-0.06703 0.50712,0.02089 0.0879,0.08792 -0.0684,0.150453 -0.34726,0.138964 -0.30823,-0.0127 -0.37092,-0.07539 -0.15986,-0.159852 z"
       id="path3" /><path
       style="fill:#2eb0fe"
       d="m 110.42396,175.21527 c 0.25466,-0.0666 0.67138,-0.0666 0.92604,0 0.25467,0.0666 0.0463,0.121 -0.46302,0.121 -0.50932,0 -0.71768,-0.0545 -0.46302,-0.121 z m 3.43959,0 c 0.25466,-0.0666 0.67138,-0.0666 0.92604,0 0.25466,0.0666 0.0463,0.121 -0.46302,0.121 -0.50933,0 -0.71769,-0.0545 -0.46302,-0.121 z m -17.686079,-29.78168 -0.504028,-0.59531 0.595312,0.50403 c 0.559447,0.47366 0.715762,0.68659 0.504028,0.68659 -0.05021,0 -0.318097,-0.26789 -0.595312,-0.59531 z m 16.826179,-0.0661 c 0.34177,-0.36381 0.68094,-0.66146 0.7537,-0.66146 0.0728,0 -0.14734,0.29765 -0.48912,0.66146 -0.34177,0.3638 -0.68094,0.66145 -0.7537,0.66145 -0.0728,0 0.14735,-0.29765 0.48912,-0.66145 z m 53.99589,-21.4533 c 0.0127,-0.30823 0.0754,-0.37092 0.15985,-0.15985 0.0764,0.19099 0.067,0.41919 -0.0209,0.50711 -0.0879,0.0879 -0.15045,-0.0684 -0.13896,-0.34726 z m -108.967836,-1.4332 c 0,-0.50932 0.05445,-0.71768 0.121,-0.46302 0.06655,0.25466 0.06655,0.67138 0,0.92604 -0.06655,0.25466 -0.121,0.0463 -0.121,-0.46302 z m 0,-3.43958 c 0,-0.50933 0.05445,-0.71769 0.121,-0.46303 0.06655,0.25467 0.06655,0.67138 0,0.92605 -0.06655,0.25466 -0.121,0.0463 -0.121,-0.46302 z m 108.967836,-1.47726 c 0.0127,-0.30823 0.0754,-0.37092 0.15985,-0.15985 0.0764,0.19099 0.067,0.4192 -0.0209,0.50711 -0.0879,0.0879 -0.15045,-0.0684 -0.13896,-0.34726 z m -88.614528,-1.43316 c 0,-0.3638 0.06005,-0.51263 0.133452,-0.33073 0.0734,0.1819 0.0734,0.47956 0,0.66146 -0.0734,0.1819 -0.133452,0.0331 -0.133452,-0.33073 z m 1.810307,-4.8624 c 0,-0.0549 0.208359,-0.2633 0.46302,-0.46302 0.419644,-0.3291 0.429003,-0.31975 0.09989,0.0999 -0.345643,0.44073 -0.562915,0.58089 -0.562915,0.36312 z m 66.431301,-10.10861 c 0.0127,-0.30822 0.0754,-0.37092 0.15985,-0.15985 0.0764,0.191 0.067,0.4192 -0.0209,0.50712 -0.0879,0.0879 -0.15045,-0.0683 -0.13896,-0.34727 z m 4.59268,-18.961802 -0.77711,-0.859896 0.8599,0.777106 c 0.80154,0.724371 0.98151,0.942686 0.7771,0.942686 -0.0455,0 -0.43249,-0.386953 -0.85989,-0.859896 z m -3.3244,-3.042708 c -0.32911,-0.419644 -0.31975,-0.429002 0.0999,-0.09989 0.44073,0.345644 0.58089,0.562916 0.36313,0.562916 -0.0549,0 -0.2633,-0.20836 -0.46302,-0.463021 z M 109.24987,66.208584 c 0.191,-0.07643 0.4192,-0.06703 0.50712,0.02089 0.0879,0.08792 -0.0683,0.150453 -0.34726,0.138964 -0.30823,-0.0127 -0.37092,-0.07539 -0.15986,-0.159852 z m 6.35,0 c 0.191,-0.07643 0.4192,-0.06703 0.50712,0.02089 0.0879,0.08792 -0.0684,0.150453 -0.34726,0.138964 -0.30823,-0.0127 -0.37092,-0.07539 -0.15986,-0.159852 z"
       id="path2" /><g
       id="g22"
       transform="matrix(0.23126018,0,0,0.23126018,-3.5230009,-43.691419)"><circle
         style="fill:url(#linearGradient22);stroke:none;stroke-width:0.325749"
         id="path10"
         cx="53.585365"
         cy="223.96239"
         r="33.079891" /><circle
         style="fill:#ff7f2a;stroke:url(#linearGradient17);stroke-width:0.310258;stroke-dasharray:none"
         id="path10-2"
         cx="48.512001"
         cy="227.55971"
         r="31.457232" /><g
         id="g20"
         transform="matrix(0.40380268,0,0,0.58587233,-8.637702,103.77642)"
         style="fill:#333333"><path
           style="fill:#333333;stroke:none;stroke-width:0.264999;stroke-dasharray:none;stroke-opacity:1"
           id="path19"
           sodipodi:type="arc"
           sodipodi:cx="137.36784"
           sodipodi:cy="216.00462"
           sodipodi:rx="19.632242"
           sodipodi:ry="19.417809"
           sodipodi:start="0"
           sodipodi:end="3.8756305"
           sodipodi:arc-type="slice"
           d="m 157.00009,216.00462 a 19.632242,19.417809 0 0 1 -14.22716,18.66738 19.632242,19.417809 0 0 1 -22.0611,-8.38848 19.632242,19.417809 0 0 1 2.07955,-23.28636 l 14.57646,13.00746 z" /><path
           style="fill:#333333;stroke:none;stroke-width:0.264999;stroke-dasharray:none;stroke-opacity:1"
           id="path19-0"
           sodipodi:type="arc"
           sodipodi:cx="-46.130417"
           sodipodi:cy="251.79338"
           sodipodi:rx="19.632242"
           sodipodi:ry="19.417809"
           sodipodi:start="0"
           sodipodi:end="3.8756305"
           sodipodi:arc-type="slice"
           d="m -26.498175,251.79338 a 19.632242,19.417809 0 0 1 -14.227151,18.66738 19.632242,19.417809 0 0 1 -22.061105,-8.38848 19.632242,19.417809 0 0 1 2.079553,-23.28637 l 14.576461,13.00747 z"
           transform="rotate(-42.836143)" /><path
           style="fill:#333333;stroke:none;stroke-width:0.264999;stroke-dasharray:none;stroke-opacity:1"
           d="m 137.36784,216.00462 c 0,0 22.68347,-29.44111 28.77999,-34.98906 12.31098,-11.20323 -2.11726,34.44813 -15.57774,49.22816 -4.35821,4.78546 -13.20225,-14.2391 -13.20225,-14.2391 z"
           id="path20"
           sodipodi:nodetypes="cssc" /></g></g></g></svg>
